<svg width="74" height="74" viewBox="0 0 74 74" fill="none" xmlns="http://www.w3.org/2000/svg">
<path d="M71.4019 35.6385C71.1735 35.2394 70.8671 34.8903 70.5009 34.612C70.1348 34.3338 69.7164 34.1321 69.2706 34.0189C66.2422 33.2819 63.0937 33.1813 60.0244 33.7235C61.3367 28.0223 60.4935 23.5329 59.6449 20.9197C59.3817 20.1034 58.8246 19.4139 58.0817 18.9851C57.3388 18.5563 56.4631 18.4187 55.6246 18.5992C52.6409 19.2649 49.8195 20.5174 47.3244 22.2838C45.563 18.0512 42.7211 14.3551 39.083 11.5654C38.4829 11.1127 37.7517 10.8678 37 10.8678C36.2483 10.8678 35.5171 11.1127 34.917 11.5654C31.279 14.3551 28.4371 18.0511 26.6758 22.2838C24.1807 20.5174 21.3592 19.2649 18.3754 18.5992C17.5368 18.4188 16.6611 18.5565 15.9182 18.9854C15.1753 19.4143 14.6183 20.1039 14.3551 20.9203C13.5064 23.5329 12.6635 28.0226 13.9756 33.7235C10.9062 33.1815 7.75783 33.2821 4.72935 34.0189C4.28429 34.1336 3.86657 34.3358 3.50062 34.6139C3.13467 34.8919 2.82783 35.2401 2.59805 35.6381C2.36827 36.0362 2.22017 36.476 2.1624 36.932C2.10464 37.3879 2.13837 37.8508 2.26162 38.2936C3.2375 41.7811 6.23508 48.4188 15.3521 53.6827C24.5053 58.967 32.6288 58.9688 36.9954 58.9688L36.9988 58.969H37.0012L37.0046 58.9688C41.3712 58.9688 49.495 58.967 58.6479 53.6827C67.7649 48.4188 70.7625 41.7814 71.7384 38.2936C71.8633 37.851 71.898 37.3879 71.8401 36.9317C71.7823 36.4755 71.6333 36.0356 71.4019 35.6382V35.6385ZM56.1059 20.8608C56.3853 20.8012 56.6769 20.8473 56.9243 20.9901C57.1717 21.133 57.3573 21.3625 57.4454 21.6343C58.2863 24.2226 59.1133 28.8571 57.3506 34.7971C57.3271 34.8579 57.3089 34.9205 57.2959 34.9844C56.5883 37.2666 55.622 39.4604 54.4157 41.523C51.9302 45.7528 48.6315 49.4486 44.7102 52.3969C44.4682 52.5793 44.2283 52.7548 43.9895 52.9265C46.9096 49.0819 49.7187 43.1784 49.7187 34.6875C49.7454 31.2379 49.2209 27.8062 48.165 24.522C50.524 22.7553 53.2301 21.5075 56.1056 20.8608H56.1059ZM36.3002 13.4189C36.5017 13.2667 36.7474 13.1843 36.9999 13.1843C37.2525 13.1842 37.4982 13.2665 37.6998 13.4186C40.6182 15.5969 47.4062 22.0303 47.4062 34.6875C47.4062 41.3524 45.5675 47.0941 41.9412 51.754C40.5492 53.5675 38.882 55.152 37 56.4499C35.118 55.152 33.4508 53.5675 32.0588 51.754C28.4325 47.0944 26.5937 41.3524 26.5937 34.6875C26.5937 22.0303 33.3818 15.5969 36.3005 13.4189H36.3002ZM16.5546 21.6346C16.6426 21.3626 16.8283 21.133 17.0759 20.99C17.3234 20.8471 17.6152 20.801 17.8947 20.8608C20.7701 21.5075 23.4761 22.7553 25.835 24.522C24.7791 27.8062 24.2546 31.2379 24.2812 34.6875C24.2812 43.1784 27.0904 49.0819 30.0105 52.9265C29.7717 52.7548 29.5318 52.5796 29.2898 52.3969C25.3685 49.4486 22.0698 45.7528 19.5843 41.523C18.3732 39.4523 17.4041 37.2494 16.696 34.9575C16.6844 34.9039 16.6691 34.8511 16.65 34.7997C14.8864 28.8583 15.7137 24.2229 16.5546 21.6346V21.6346ZM4.48914 37.6706C4.4489 37.5244 4.43812 37.3717 4.45741 37.2213C4.47671 37.0709 4.5257 36.9258 4.60155 36.7945C4.67739 36.6632 4.77858 36.5483 4.89922 36.4564C5.01986 36.3646 5.15755 36.2976 5.3043 36.2594C7.3127 35.7443 10.5334 35.3385 14.6659 36.2057C15.4092 38.4593 16.3865 40.6289 17.5819 42.6789C21.3051 49.1273 26.7328 53.7645 31.1222 56.4224C25.966 55.914 20.9808 54.2962 16.5086 51.68C8.10213 46.8267 5.36962 40.8194 4.48914 37.6706V37.6706ZM69.5114 37.6706C68.6309 40.8194 65.8984 46.8264 57.4919 51.68C53.0197 54.2962 48.0346 55.914 42.8784 56.4224C47.2678 53.7648 52.6955 49.1273 56.4186 42.6789C57.614 40.629 58.5913 38.4595 59.3347 36.206C63.4668 35.3385 66.6879 35.7443 68.6966 36.2594C68.8433 36.2976 68.981 36.3646 69.1016 36.4564C69.2223 36.5483 69.3235 36.6632 69.3993 36.7945C69.4752 36.9258 69.5241 37.0709 69.5434 37.2213C69.5627 37.3717 69.552 37.5244 69.5117 37.6706H69.5114Z" fill="black"/>
<path d="M37 56.6563C54.9219 42.3477 46.9727 18.6445 37 13.0078C36 13.5 35 14.5 35 14.5C52.4594 31.9594 43.6485 48.0326 37 53.9102L29.1953 46.9727C32.0859 53.1875 37 56.6563 37 56.6563Z" fill="#D3DEBD"/>
</svg>
