<svg width="426" height="464" viewBox="0 0 426 464" fill="none" xmlns="http://www.w3.org/2000/svg">
<g clip-path="url(#clip0)">
<path d="M426 417.826C426 431.908 330.637 464 213 464C95.3633 464 0 431.908 0 417.826C0 403.743 95.3633 413.001 213 413.001C330.637 413.001 426 403.743 426 417.826Z" fill="#D3DEBD"/>
<path opacity="0.1" d="M426 417.826C426 431.908 330.637 464 213 464C95.3633 464 0 431.908 0 417.826C0 403.743 95.3633 413.001 213 413.001C330.637 413.001 426 403.743 426 417.826Z" fill="black"/>
<path d="M60.6602 230.371C65.6093 230.371 69.6214 226.36 69.6214 221.412C69.6214 216.464 65.6093 212.453 60.6602 212.453C55.7111 212.453 51.699 216.464 51.699 221.412C51.699 226.36 55.7111 230.371 60.6602 230.371Z" fill="#B6C7DB"/>
<path d="M99.9515 304.113C104.901 304.113 108.913 300.101 108.913 295.153C108.913 290.205 104.901 286.194 99.9515 286.194C95.0023 286.194 90.9903 290.205 90.9903 295.153C90.9903 300.101 95.0023 304.113 99.9515 304.113Z" fill="#B6C7DB"/>
<path d="M69.6214 285.505C74.5705 285.505 78.5825 281.494 78.5825 276.546C78.5825 271.598 74.5705 267.586 69.6214 267.586C64.6722 267.586 60.6602 271.598 60.6602 276.546C60.6602 281.494 64.6722 285.505 69.6214 285.505Z" fill="#B6C7DB"/>
<path d="M72.4796 403.712C72.3214 403.454 68.5914 397.227 67.2982 384.297C66.1121 372.435 66.8748 352.439 77.2469 324.547C96.8966 271.708 72.7186 229.074 72.4715 228.65L73.6643 227.958C73.7269 228.065 79.9658 238.935 83.6514 256.244C88.5212 279.192 86.7479 303.052 78.5394 325.028C58.9234 377.777 73.5068 402.748 73.6563 402.994L72.4796 403.712Z" fill="#B6C7DB"/>
<path d="M64.7961 226.236C62.8874 226.236 61.0216 225.67 59.4346 224.61C57.8476 223.55 56.6106 222.043 55.8802 220.28C55.1498 218.517 54.9587 216.577 55.3311 214.706C55.7034 212.834 56.6226 211.115 57.9722 209.765C59.3218 208.416 61.0414 207.497 62.9134 207.125C64.7854 206.753 66.7258 206.944 68.4892 207.674C70.2526 208.404 71.7598 209.641 72.8202 211.227C73.8806 212.814 74.4466 214.68 74.4466 216.588C74.4437 219.146 73.4261 221.598 71.6169 223.407C69.8077 225.216 67.3547 226.233 64.7961 226.236V226.236ZM64.7961 208.318C63.1601 208.318 61.5608 208.803 60.2005 209.712C58.8402 210.62 57.78 211.912 57.1539 213.423C56.5279 214.934 56.3641 216.597 56.6832 218.201C57.0024 219.805 57.7902 221.279 58.9471 222.436C60.1039 223.592 61.5778 224.38 63.1824 224.699C64.7869 225.018 66.4501 224.854 67.9616 224.228C69.4731 223.602 70.765 222.542 71.6739 221.182C72.5828 219.822 73.068 218.224 73.068 216.588C73.0655 214.395 72.1932 212.293 70.6424 210.743C69.0917 209.192 66.9892 208.32 64.7961 208.318V208.318Z" fill="#8BAACF"/>
<path d="M93.0582 258.627C98.0074 258.627 102.019 254.616 102.019 249.668C102.019 244.72 98.0074 240.709 93.0582 240.709C88.1091 240.709 84.0971 244.72 84.0971 249.668C84.0971 254.616 88.1091 258.627 93.0582 258.627Z" fill="#B6C7DB"/>
<path d="M73.7573 281.37C71.8486 281.37 69.9828 280.804 68.3958 279.744C66.8087 278.684 65.5718 277.177 64.8414 275.414C64.111 273.651 63.9199 271.711 64.2923 269.839C64.6646 267.967 65.5837 266.248 66.9334 264.899C68.283 263.55 70.0026 262.631 71.8746 262.258C73.7466 261.886 75.687 262.077 77.4504 262.807C79.2138 263.538 80.721 264.774 81.7814 266.361C82.8418 267.948 83.4078 269.813 83.4078 271.721C83.4049 274.279 82.3873 276.732 80.5781 278.541C78.7689 280.349 76.3159 281.367 73.7573 281.37ZM73.7573 263.451C72.1213 263.451 70.522 263.936 69.1617 264.845C67.8014 265.754 66.7412 267.045 66.1151 268.557C65.489 270.068 65.3252 271.731 65.6444 273.335C65.9635 274.939 66.7514 276.413 67.9082 277.569C69.065 278.726 70.5389 279.513 72.1435 279.833C73.7481 280.152 75.4113 279.988 76.9228 279.362C78.4343 278.736 79.7261 277.676 80.6351 276.316C81.544 274.956 82.0291 273.357 82.0291 271.721C82.0267 269.529 81.1544 267.427 79.6036 265.876C78.0529 264.326 75.9503 263.454 73.7573 263.451V263.451Z" fill="#8BAACF"/>
<path d="M97.1942 299.977C95.2855 299.977 93.4197 299.412 91.8327 298.351C90.2456 297.291 89.0087 295.784 88.2783 294.021C87.5479 292.258 87.3568 290.318 87.7291 288.447C88.1015 286.575 89.0206 284.856 90.3703 283.507C91.7199 282.157 93.4395 281.238 95.3115 280.866C97.1835 280.494 99.1239 280.685 100.887 281.415C102.651 282.145 104.158 283.382 105.218 284.969C106.279 286.555 106.845 288.421 106.845 290.329C106.842 292.887 105.824 295.339 104.015 297.148C102.206 298.957 99.7528 299.975 97.1942 299.977V299.977ZM97.1942 282.059C95.5582 282.059 93.9589 282.544 92.5986 283.453C91.2383 284.361 90.1781 285.653 89.552 287.164C88.9259 288.675 88.7621 290.338 89.0813 291.942C89.4005 293.547 90.1883 295.02 91.3451 296.177C92.5019 297.333 93.9758 298.121 95.5804 298.44C97.185 298.759 98.8482 298.595 100.36 297.97C101.871 297.344 103.163 296.284 104.072 294.924C104.981 293.564 105.466 291.965 105.466 290.329C105.464 288.136 104.591 286.034 103.041 284.484C101.49 282.934 99.3873 282.061 97.1942 282.059Z" fill="#8BAACF"/>
<path d="M66.8641 328.233C71.8132 328.233 75.8253 324.222 75.8253 319.274C75.8253 314.326 71.8132 310.315 66.8641 310.315C61.915 310.315 57.9029 314.326 57.9029 319.274C57.9029 324.222 61.915 328.233 66.8641 328.233Z" fill="#B6C7DB"/>
<path d="M77.8932 404.042C77.8932 404.042 68.932 381.989 95.8155 365.449L77.8932 404.042Z" fill="#B6C7DB"/>
<path d="M66.8724 403.642C66.8724 403.642 62.794 380.19 31.2286 380.391L66.8724 403.642Z" fill="#B6C7DB"/>
<path d="M390.388 412.312H237.859C237.859 412.312 234.768 366.976 253.061 366.461C271.354 365.945 269.293 386.553 292.224 358.218C315.154 329.882 342.981 331.428 346.588 348.171C350.195 364.915 339.631 378.31 358.955 374.188C378.279 370.067 406.105 380.886 390.388 412.312Z" fill="#B6C7DB"/>
<path d="M311.549 412.323L311.034 412.302C312.235 382.453 318.488 363.274 323.522 352.442C328.987 340.68 334.254 335.919 334.307 335.872L334.649 336.257C334.597 336.303 329.392 341.018 323.97 352.7C318.964 363.486 312.745 382.586 311.549 412.323Z" fill="#F2F2F2"/>
<path d="M366.753 412.384L366.258 412.24C372.215 391.799 386.242 378.893 386.383 378.765L386.729 379.147C386.589 379.274 372.667 392.088 366.753 412.384Z" fill="#F2F2F2"/>
<path d="M261.883 412.348L261.373 412.277C263.394 397.705 259.743 386.399 256.325 379.48C252.624 371.989 248.4 367.898 248.358 367.858L248.715 367.486C248.758 367.527 253.046 371.681 256.787 379.252C260.237 386.235 263.922 397.646 261.883 412.348Z" fill="#F2F2F2"/>
<path d="M411.089 413.002H221.408L221.364 412.359C221.255 410.761 218.835 373.066 231.052 359.616C233.783 356.609 237.073 355.031 240.83 354.925C248.793 354.699 253.797 357.681 257.833 360.074C265.441 364.587 270.467 367.568 288.74 344.987C308.536 320.525 329.895 315.263 342.173 318.189C350.107 320.08 355.575 325.425 357.175 332.853C358.69 339.887 358.208 346.496 357.82 351.806C357.405 357.488 357.077 361.976 359.411 364.01C361.36 365.707 365.249 365.862 371.65 364.496C384.67 361.719 402.837 364.095 411.956 375.874C416.862 382.211 420.726 393.731 411.28 412.621L411.089 413.002ZM222.702 411.623H410.235C417.275 397.344 417.495 385.281 410.866 376.718C402.5 365.912 384.951 363.068 371.937 365.844C364.983 367.327 360.839 367.082 358.506 365.049C355.652 362.563 356.002 357.772 356.445 351.706C356.826 346.483 357.301 339.984 355.827 333.143C354.343 326.255 349.25 321.293 341.854 319.53C329.967 316.695 309.205 321.891 289.812 345.854C270.79 369.36 265.06 365.963 257.13 361.26C253.044 358.837 248.405 356.089 240.869 356.303C237.501 356.398 234.542 357.824 232.072 360.542C221.093 372.63 222.433 406.527 222.702 411.623Z" fill="#8BAACF"/>
<path d="M213 443.325C330.637 443.325 426 431.908 426 417.826C426 403.743 330.637 392.326 213 392.326C95.3633 392.326 0 403.743 0 417.826C0 431.908 95.3633 443.325 213 443.325Z" fill="#D3DEBD"/>
<path d="M217.684 84.2501C217.684 84.2501 207.035 80.4478 200.19 95.6568C193.344 110.866 182.695 127.596 182.695 127.596L188.78 129.116C188.78 129.116 190.302 118.47 194.105 116.949L192.583 130.637C192.583 130.637 238.22 146.607 258.757 129.116L257.996 123.793C257.996 123.793 261.039 124.554 261.039 129.116L263.32 126.835C263.32 126.835 261.039 122.272 254.193 116.189C249.7 112.196 248.156 104.599 247.625 99.8497C247.228 95.8838 245.641 92.1305 243.072 89.0823C238.523 83.8112 230.234 78.2087 217.684 84.2501Z" fill="#2F2E41"/>
<path d="M206.451 143.88L195.422 130.097L187.15 101.841L218.859 68.0716C218.859 68.0716 225.752 41.8831 219.549 43.2614C213.345 44.6398 211.966 63.9365 211.966 63.9365L171.985 94.9492C171.985 94.9492 176.121 138.367 187.84 153.529L196.801 181.785L206.451 143.88Z" fill="#F7C4A7"/>
<path d="M236.782 143.88L247.811 130.097L256.083 101.841L224.374 68.0716C224.374 68.0716 217.481 41.8831 223.684 43.2614C229.888 44.6398 231.267 63.9365 231.267 63.9365L271.248 94.9492C271.248 94.9492 267.112 138.367 255.393 153.529L246.432 181.785L236.782 143.88Z" fill="#F7C4A7"/>
<path d="M221.617 132.164C231.515 132.164 239.539 124.142 239.539 114.246C239.539 104.35 231.515 96.3276 221.617 96.3276C211.718 96.3276 203.694 104.35 203.694 114.246C203.694 124.142 211.718 132.164 221.617 132.164Z" fill="#F7C4A7"/>
<path d="M213.345 123.894C213.345 123.894 214.034 138.367 209.898 143.191C205.762 148.015 201.626 172.826 221.616 173.515C241.607 174.204 239.539 152.84 239.539 152.84L235.403 141.124C235.403 141.124 229.199 132.164 231.267 123.894H213.345Z" fill="#F7C4A7"/>
<path d="M194.733 284.471L209.553 288.951C209.553 288.951 221.616 281.715 221.616 288.606C221.616 295.498 217.481 304.457 218.859 310.66C220.238 316.862 222.995 332.024 218.859 332.024C214.723 332.024 206.451 305.146 206.451 305.146L192.665 297.565L194.733 284.471Z" fill="#F7C4A7"/>
<path d="M213.345 380.955L207.83 402.319C207.83 402.319 203.005 408.522 207.83 411.279C210.094 412.572 211.751 415.231 212.873 417.69C213.85 419.904 215.485 421.764 217.556 423.017C219.627 424.269 222.034 424.854 224.449 424.692C226.802 424.497 228.784 423.567 229.266 421.15C229.399 420.392 229.373 419.614 229.19 418.866C229.006 418.118 228.668 417.417 228.199 416.807C223.114 409.937 221.961 405.421 221.961 405.421L224.029 381.3L213.345 380.955Z" fill="#F7C4A7"/>
<path d="M199.997 117.428C199.997 117.428 206.082 109.063 211.406 107.543C216.73 106.022 217.491 98.4172 217.491 98.4172C217.491 98.4172 231.182 113.626 239.549 114.387C247.916 115.147 240.309 96.1359 240.309 96.1359L225.097 92.3336L210.645 93.8545L199.236 101.459L199.997 117.428Z" fill="#2F2E41"/>
<path d="M188.529 232.094L185.772 237.608C185.772 237.608 118.908 258.972 124.422 278.958C129.937 298.944 160.956 293.43 160.956 293.43L195.422 299.633L198.869 284.471L174.743 278.269L216.102 263.107L217.481 333.402L211.966 383.712L225.752 385.09C225.752 385.09 240.918 338.916 238.85 319.619C238.85 319.619 264.354 241.053 249.879 229.338C235.403 217.622 188.529 232.094 188.529 232.094Z" fill="#2F2E41"/>
<path d="M222.425 152.849L211.669 139.853L204.383 143.191L196.801 167.312C196.801 167.312 190.597 179.028 198.18 191.433C198.18 191.433 199.558 199.703 197.49 201.771C195.422 203.838 194.733 216.932 194.733 216.932L185.772 234.162C185.772 234.162 236.782 243.121 251.947 230.716C251.947 230.716 243.989 201.384 248.814 192.425C253.639 183.465 254.329 169.731 248.814 163.528C243.3 157.326 237.471 141.124 237.471 141.124L234.133 138.989L222.425 152.849Z" fill="#EFCBEE"/>
<path d="M262.637 49.9543H256.026V43.3445H255.425V49.9543H248.814V50.5548H255.425V57.1645H256.026V50.5548H262.637V49.9543Z" fill="#EFCBEE"/>
<path d="M199.805 36.1343H193.194V29.5246H192.593V36.1343H185.982V36.7349H192.593V43.3446H193.194V36.7349H199.805V36.1343Z" fill="#EFCBEE"/>
<path d="M229.964 6.60971H223.354V0H222.752V6.60971H216.141V7.21029H222.752V13.82H223.354V7.21029H229.964V6.60971Z" fill="#EFCBEE"/>
</g>
<defs>
<clipPath id="clip0">
<rect width="426" height="464" fill="white"/>
</clipPath>
</defs>
</svg>
