<svg width="391" height="295" viewBox="0 0 391 295" fill="none" xmlns="http://www.w3.org/2000/svg">
<path d="M183.743 247.646C183.743 247.646 188.719 239.495 195.108 244.314C201.498 249.134 213.33 257.265 213.33 257.265C213.33 257.265 215.753 262.467 209.481 260.513C203.208 258.559 182.732 255.415 182.732 255.415L183.743 247.646Z" fill="#F7C4A7"/>
<path d="M44.6701 195.879C46.256 183.148 54.159 170.604 66.3205 166.461C61.5244 179.565 61.5254 193.94 66.3235 207.044C68.1922 212.091 70.7971 217.509 69.0393 222.596C67.9456 225.761 65.27 228.182 62.2793 229.696C59.2883 231.21 55.969 231.932 52.6912 232.639L52.0461 233.172C46.8427 221.441 43.0843 208.611 44.6701 195.879Z" fill="#B3CDA2"/>
<path d="M66.4412 166.702C59.3589 174.624 54.957 184.573 53.8608 195.136C53.5844 197.406 53.6681 199.705 54.1087 201.948C54.6087 204.12 55.6821 206.119 57.2173 207.736C58.6185 209.273 60.2299 210.683 61.2325 212.533C61.7315 213.488 62.0228 214.537 62.0873 215.612C62.1517 216.687 61.9878 217.764 61.6063 218.771C60.7212 221.306 58.9767 223.371 57.2004 225.332C55.2281 227.51 53.145 229.74 52.3066 232.627C52.2051 232.977 51.6674 232.799 51.7688 232.45C53.2274 227.427 58.1107 224.575 60.4395 220.051C61.5261 217.94 61.9822 215.49 60.9635 213.262C60.0727 211.313 58.4122 209.858 56.98 208.314C55.4592 206.758 54.3431 204.854 53.7292 202.768C53.1756 200.554 53.0034 198.262 53.2199 195.99C53.6258 190.868 54.8358 185.841 56.8056 181.094C59.0237 175.664 62.1558 170.653 66.0665 166.278C66.3086 166.007 66.6818 166.433 66.4412 166.702V166.702Z" fill="white"/>
<path d="M54.0133 191.714C52.2632 191.29 50.7211 190.259 49.6625 188.804C48.6038 187.35 48.0975 185.567 48.234 183.774C48.2628 183.411 48.8287 183.439 48.7998 183.802C48.6696 185.471 49.1414 187.132 50.13 188.484C51.1186 189.837 52.5589 190.792 54.1909 191.177C54.5454 191.261 54.3658 191.798 54.0133 191.714Z" fill="white"/>
<path d="M56.4041 207.051C59.565 205.166 61.8983 202.162 62.939 198.636C63.0418 198.287 63.5795 198.465 63.4768 198.814C62.387 202.48 59.9524 205.602 56.6588 207.556C56.3448 207.742 56.0918 207.236 56.4041 207.051V207.051Z" fill="white"/>
<path d="M59.5492 176.2C60.192 176.505 60.9007 176.646 61.6116 176.61C62.3225 176.574 63.0132 176.362 63.6219 175.994C63.9334 175.804 64.1861 176.31 63.8766 176.499C63.2022 176.902 62.4391 177.135 61.6538 177.177C60.8685 177.218 60.0849 177.067 59.3716 176.737C59.3017 176.711 59.2442 176.66 59.2108 176.594C59.1773 176.528 59.1704 176.451 59.1915 176.38C59.2153 176.309 59.2663 176.25 59.3333 176.216C59.4002 176.183 59.4778 176.177 59.5492 176.2V176.2Z" fill="white"/>
<path d="M103.391 189.201C103.2 189.325 103.008 189.449 102.817 189.578C100.256 191.259 97.8356 193.146 95.5803 195.218C95.4034 195.376 95.2265 195.538 95.0545 195.7C89.6744 200.752 85.2805 206.757 82.0961 213.41C80.8314 216.058 79.7704 218.799 78.9222 221.609C77.751 225.488 76.7903 229.788 74.472 232.962C74.2339 233.295 73.9752 233.614 73.6976 233.916H52.747C52.6994 233.892 52.6516 233.873 52.6037 233.849L51.7672 233.887C51.8008 233.739 51.8389 233.587 51.8725 233.439C51.8916 233.353 51.9154 233.267 51.9346 233.181C51.9488 233.124 51.9633 233.067 51.9728 233.014C51.9775 232.995 51.9824 232.976 51.9871 232.962C51.9966 232.909 52.0111 232.861 52.0207 232.814C52.231 231.959 52.4477 231.105 52.6707 230.251C52.6707 230.246 52.6707 230.246 52.6754 230.241C54.3915 223.737 56.6667 217.318 59.8453 211.449C59.941 211.272 60.0364 211.091 60.1417 210.914C61.5892 208.276 63.2502 205.761 65.1081 203.393C66.1297 202.1 67.2161 200.859 68.3633 199.676C71.3334 196.623 74.7659 194.056 78.535 192.069C86.0491 188.108 94.7485 186.59 102.779 189.01C102.984 189.072 103.185 189.134 103.391 189.201Z" fill="#B3CDA2"/>
<path d="M103.344 189.466C92.911 191.535 83.3965 196.833 76.1516 204.607C74.5621 206.254 73.2425 208.139 72.2413 210.196C71.3308 212.23 70.9827 214.471 71.233 216.686C71.4249 218.755 71.8612 220.849 71.5459 222.929C71.3687 223.992 70.9685 225.004 70.3717 225.901C69.7749 226.799 68.9949 227.559 68.0829 228.134C65.8477 229.626 63.209 230.227 60.6081 230.725C57.7203 231.278 54.712 231.807 52.3018 233.608C52.0098 233.826 51.6877 233.361 51.9793 233.143C56.1726 230.01 61.7919 230.667 66.3792 228.455C68.5197 227.423 70.3616 225.741 70.8919 223.349C71.3556 221.258 70.9075 219.098 70.6951 217.004C70.4192 214.848 70.6763 212.656 71.4442 210.622C72.3373 208.521 73.5819 206.588 75.1248 204.904C78.5378 201.058 82.5352 197.772 86.9706 195.166C92.0162 192.164 97.539 190.045 103.3 188.902C103.657 188.832 103.698 189.396 103.344 189.466H103.344Z" fill="white"/>
<path d="M78.3368 201.967C77.1953 200.576 76.5861 198.826 76.618 197.028C76.6498 195.23 77.3207 193.503 78.5108 192.153C78.7526 191.881 79.1876 192.243 78.9456 192.516C77.835 193.77 77.2102 195.38 77.184 197.054C77.1577 198.728 77.7317 200.356 78.8024 201.645C79.0347 201.925 78.5678 202.246 78.3368 201.967H78.3368Z" fill="white"/>
<path d="M70.9973 215.649C74.6574 216.044 78.3323 215.048 81.2892 212.859C81.582 212.641 81.9042 213.107 81.6117 213.323C78.5304 215.596 74.704 216.625 70.8962 216.205C70.5333 216.165 70.6364 215.609 70.9973 215.649V215.649Z" fill="white"/>
<path d="M92.1127 192.907C92.4421 193.537 92.923 194.076 93.5123 194.474C94.1016 194.873 94.7809 195.119 95.489 195.191C95.8523 195.226 95.7487 195.782 95.3878 195.747C94.6058 195.664 93.856 195.391 93.2039 194.952C92.5518 194.514 92.0173 193.922 91.6471 193.229C91.6067 193.167 91.5916 193.092 91.6049 193.018C91.6182 192.945 91.6589 192.88 91.7186 192.836C91.7805 192.794 91.8566 192.777 91.9304 192.791C92.0042 192.804 92.0697 192.846 92.1127 192.907V192.907Z" fill="white"/>
<path d="M213.638 280.259C214.252 275.325 217.315 270.463 222.028 268.858C220.17 273.936 220.17 279.507 222.03 284.586C222.754 286.542 223.763 288.642 223.082 290.613C222.594 291.831 221.656 292.816 220.462 293.365C219.277 293.902 218.029 294.285 216.746 294.505L216.496 294.712C214.48 290.165 213.023 285.193 213.638 280.259Z" fill="#B3CDA2"/>
<path d="M222.075 268.951C219.33 272.021 217.624 275.877 217.2 279.971C217.092 280.85 217.125 281.741 217.296 282.611C217.489 283.453 217.905 284.227 218.5 284.854C219.093 285.408 219.615 286.033 220.057 286.713C220.25 287.083 220.363 287.49 220.388 287.906C220.413 288.323 220.349 288.74 220.201 289.13C219.809 290.084 219.228 290.949 218.494 291.673C217.73 292.517 216.922 293.382 216.597 294.5C216.558 294.636 216.35 294.567 216.389 294.432C216.954 292.485 218.847 291.38 219.749 289.627C219.982 289.233 220.121 288.791 220.156 288.335C220.191 287.878 220.122 287.42 219.952 286.995C219.543 286.278 219.022 285.631 218.408 285.078C217.819 284.475 217.387 283.737 217.149 282.928C216.934 282.07 216.867 281.182 216.951 280.302C217.109 278.317 217.577 276.369 218.341 274.529C219.2 272.424 220.414 270.482 221.93 268.787C222.024 268.682 222.168 268.847 222.075 268.951H222.075Z" fill="white"/>
<path d="M217.259 278.645C216.58 278.48 215.983 278.08 215.573 277.517C215.162 276.953 214.966 276.262 215.019 275.567C215.03 275.427 215.249 275.437 215.238 275.578C215.188 276.225 215.371 276.869 215.754 277.393C216.137 277.917 216.695 278.287 217.327 278.436C217.465 278.469 217.395 278.677 217.259 278.645H217.259Z" fill="white"/>
<path d="M218.185 284.588C219.41 283.858 220.315 282.694 220.718 281.327C220.758 281.192 220.966 281.261 220.926 281.396C220.504 282.817 219.56 284.027 218.284 284.784C218.162 284.856 218.064 284.66 218.185 284.588V284.588Z" fill="white"/>
<path d="M219.404 272.632C219.653 272.75 219.928 272.805 220.203 272.791C220.479 272.777 220.747 272.695 220.982 272.552C221.103 272.479 221.201 272.675 221.081 272.748C220.82 272.904 220.524 272.995 220.22 273.011C219.915 273.027 219.612 272.968 219.335 272.84C219.308 272.83 219.286 272.811 219.273 272.785C219.26 272.759 219.257 272.729 219.265 272.702C219.275 272.674 219.294 272.652 219.32 272.639C219.346 272.625 219.376 272.623 219.404 272.632L219.404 272.632Z" fill="white"/>
<path d="M236.395 277.67C236.321 277.718 236.247 277.767 236.173 277.816C235.18 278.468 234.242 279.199 233.368 280.003C233.3 280.064 233.231 280.126 233.164 280.189C231.079 282.147 229.376 284.474 228.142 287.053C227.652 288.079 227.241 289.141 226.912 290.23C226.458 291.734 226.086 293.4 225.188 294.63C225.095 294.759 224.995 294.883 224.887 295H216.768C216.749 294.991 216.731 294.983 216.712 294.974L216.388 294.989C216.401 294.932 216.416 294.872 216.429 294.815C216.436 294.782 216.446 294.748 216.453 294.715C216.459 294.693 216.464 294.671 216.468 294.65C216.47 294.643 216.472 294.636 216.473 294.63C216.477 294.61 216.483 294.591 216.486 294.573C216.568 294.242 216.652 293.911 216.738 293.58L216.74 293.576C217.375 291.047 218.307 288.602 219.519 286.293C219.556 286.224 219.593 286.154 219.634 286.085C220.195 285.063 220.838 284.088 221.558 283.171C221.954 282.67 222.375 282.189 222.82 281.73C223.971 280.547 225.301 279.552 226.762 278.782C229.674 277.247 233.046 276.659 236.158 277.596C236.238 277.62 236.315 277.644 236.395 277.67Z" fill="#B3CDA2"/>
<path d="M236.377 277.773C232.334 278.575 228.646 280.628 225.838 283.641C225.222 284.279 224.711 285.01 224.323 285.807C223.97 286.596 223.835 287.464 223.932 288.322C224.071 289.121 224.111 289.934 224.053 290.742C223.985 291.154 223.83 291.546 223.598 291.894C223.367 292.242 223.065 292.537 222.711 292.759C221.823 293.284 220.838 293.626 219.814 293.763C218.695 293.978 217.529 294.183 216.595 294.881C216.482 294.965 216.357 294.785 216.47 294.7C218.095 293.486 220.273 293.741 222.051 292.884C222.474 292.709 222.852 292.44 223.155 292.097C223.458 291.754 223.679 291.346 223.8 290.905C223.906 290.086 223.88 289.256 223.724 288.446C223.617 287.61 223.716 286.761 224.014 285.972C224.36 285.158 224.843 284.409 225.44 283.756C226.763 282.266 228.312 280.992 230.031 279.982C231.987 278.819 234.127 277.998 236.36 277.555C236.498 277.527 236.514 277.746 236.377 277.773H236.377Z" fill="white"/>
<path d="M226.685 282.618C226.243 282.079 226.007 281.401 226.019 280.704C226.032 280.007 226.292 279.338 226.753 278.815C226.846 278.709 227.015 278.85 226.921 278.955C226.491 279.441 226.249 280.065 226.239 280.714C226.228 281.363 226.451 281.994 226.866 282.493C226.956 282.602 226.775 282.726 226.685 282.618Z" fill="white"/>
<path d="M223.841 287.921C225.259 288.074 226.684 287.688 227.83 286.839C227.943 286.755 228.068 286.935 227.955 287.019C226.76 287.9 225.277 288.299 223.802 288.136C223.661 288.121 223.701 287.905 223.841 287.921H223.841Z" fill="white"/>
<path d="M232.024 279.107C232.152 279.351 232.338 279.56 232.567 279.714C232.795 279.869 233.058 279.964 233.333 279.992C233.474 280.006 233.433 280.221 233.294 280.208C232.99 280.175 232.7 280.07 232.447 279.9C232.194 279.73 231.987 279.5 231.844 279.232C231.828 279.208 231.822 279.178 231.827 279.15C231.833 279.122 231.848 279.096 231.872 279.079C231.895 279.063 231.925 279.057 231.954 279.062C231.982 279.067 232.008 279.083 232.024 279.107V279.107Z" fill="white"/>
<path d="M353.137 175.452C350.7 155.883 338.552 136.603 319.859 130.234C327.231 150.376 327.23 172.472 319.855 192.612C316.983 200.369 312.979 208.698 315.681 216.516C317.362 221.381 321.474 225.103 326.071 227.43C330.668 229.757 335.77 230.866 340.808 231.953L341.8 232.772C349.798 214.741 355.575 195.021 353.137 175.452Z" fill="#B3CDA2"/>
<path d="M319.674 130.604C330.56 142.782 337.326 158.074 339.011 174.309C339.35 177.79 339.392 181.35 338.63 184.78C337.861 188.118 336.211 191.19 333.852 193.676C331.698 196.039 329.221 198.206 327.68 201.05C326.056 204.047 325.993 207.453 327.105 210.637C328.466 214.533 331.147 217.708 333.878 220.723C336.909 224.069 340.111 227.498 341.399 231.935C341.556 232.472 342.382 232.199 342.226 231.662C339.984 223.943 332.478 219.558 328.899 212.605C327.229 209.361 326.528 205.594 328.093 202.17C329.463 199.175 332.015 196.938 334.216 194.564C336.528 192.073 338.3 189.339 339.213 186.04C340.147 182.665 340.245 179.096 339.996 175.622C339.372 167.749 337.512 160.023 334.484 152.727C331.075 144.38 326.261 136.678 320.25 129.953C319.878 129.536 319.304 130.191 319.674 130.604L319.674 130.604Z" fill="white"/>
<path d="M338.776 169.05C341.466 168.398 343.836 166.812 345.464 164.577C347.091 162.341 347.869 159.601 347.659 156.845C347.615 156.288 346.745 156.33 346.79 156.888C346.99 159.454 346.265 162.007 344.745 164.085C343.226 166.164 341.012 167.632 338.503 168.225C337.958 168.354 338.234 169.178 338.776 169.05H338.776Z" fill="white"/>
<path d="M335.101 192.622C330.243 189.726 326.657 185.108 325.057 179.689C324.899 179.152 324.073 179.425 324.231 179.962C325.906 185.598 329.648 190.396 334.71 193.399C335.193 193.684 335.582 192.907 335.101 192.622V192.622Z" fill="white"/>
<path d="M330.267 145.204C329.279 145.673 328.19 145.889 327.097 145.834C326.005 145.778 324.943 145.453 324.007 144.887C323.529 144.595 323.14 145.373 323.616 145.663C324.652 146.284 325.825 146.642 327.033 146.706C328.24 146.769 329.444 146.537 330.54 146.029C330.648 145.99 330.736 145.911 330.788 145.809C330.839 145.707 330.85 145.59 330.817 145.48C330.781 145.371 330.702 145.281 330.599 145.229C330.496 145.177 330.377 145.168 330.267 145.204V145.204Z" fill="white"/>
<path d="M262.881 165.186C263.175 165.377 263.469 165.568 263.763 165.766C267.699 168.35 271.419 171.25 274.886 174.436C275.158 174.678 275.43 174.927 275.694 175.177C283.963 182.941 290.717 192.171 295.612 202.397C297.556 206.468 299.186 210.681 300.49 214.999C302.29 220.962 303.767 227.571 307.33 232.449C307.696 232.962 308.094 233.452 308.521 233.916H340.723C340.796 233.879 340.869 233.85 340.943 233.813L342.229 233.872C342.177 233.645 342.118 233.41 342.067 233.182C342.037 233.05 342.001 232.918 341.971 232.786C341.95 232.698 341.927 232.61 341.913 232.53C341.905 232.5 341.898 232.471 341.891 232.449C341.876 232.368 341.854 232.295 341.839 232.222C341.516 230.909 341.183 229.596 340.84 228.283C340.84 228.275 340.84 228.275 340.833 228.268C338.195 218.27 334.698 208.405 329.812 199.382C329.665 199.111 329.518 198.832 329.357 198.561C327.132 194.506 324.579 190.64 321.723 187.001C320.153 185.013 318.483 183.106 316.72 181.287C312.155 176.595 306.879 172.65 301.085 169.595C289.536 163.507 276.164 161.174 263.821 164.893C263.505 164.988 263.197 165.084 262.881 165.186Z" fill="#B3CDA2"/>
<path d="M262.953 165.594C278.989 168.774 293.613 176.917 304.749 188.867C307.119 191.442 309.299 194.26 310.759 197.457C312.158 200.584 312.694 204.028 312.309 207.432C312.014 210.612 311.343 213.832 311.828 217.029C312.339 220.398 314.343 223.155 317.151 225.029C320.586 227.322 324.642 228.246 328.64 229.011C333.078 229.861 337.702 230.674 341.407 233.442C341.856 233.777 342.351 233.062 341.903 232.727C335.457 227.911 326.82 228.922 319.769 225.522C316.479 223.936 313.648 221.35 312.833 217.674C312.12 214.46 312.809 211.14 313.136 207.922C313.478 204.543 313.245 201.295 311.984 198.112C310.695 194.856 308.621 191.947 306.327 189.323C301.081 183.412 294.937 178.361 288.119 174.355C280.364 169.741 271.875 166.484 263.02 164.728C262.472 164.619 262.409 165.487 262.953 165.594V165.594Z" fill="white"/>
<path d="M301.39 184.809C303.144 182.671 304.081 179.981 304.032 177.217C303.983 174.454 302.952 171.798 301.122 169.724C300.751 169.306 300.082 169.863 300.454 170.282C302.161 172.21 303.121 174.684 303.162 177.257C303.202 179.83 302.32 182.333 300.674 184.314C300.317 184.745 301.035 185.237 301.39 184.809L301.39 184.809Z" fill="white"/>
<path d="M312.671 205.839C307.045 206.447 301.397 204.915 296.852 201.55C296.402 201.216 295.907 201.931 296.356 202.264C301.092 205.758 306.974 207.339 312.827 206.694C313.384 206.632 313.226 205.777 312.671 205.839V205.839Z" fill="white"/>
<path d="M280.216 170.884C279.709 171.852 278.97 172.679 278.064 173.292C277.159 173.905 276.115 174.283 275.026 174.393C274.468 174.448 274.627 175.303 275.182 175.248C276.384 175.121 277.536 174.702 278.538 174.027C279.541 173.352 280.362 172.443 280.931 171.378C280.993 171.283 281.017 171.167 280.996 171.054C280.976 170.942 280.913 170.842 280.821 170.774C280.726 170.709 280.609 170.684 280.496 170.704C280.383 170.725 280.282 170.789 280.216 170.884V170.884Z" fill="white"/>
<path d="M390.678 234.393H0.477995C0.351223 234.393 0.229643 234.343 0.140001 234.253C0.0503597 234.164 0 234.043 0 233.916C0 233.789 0.0503597 233.668 0.140001 233.579C0.229643 233.489 0.351223 233.439 0.477995 233.439H390.522C390.649 233.439 390.77 233.489 390.86 233.579C390.95 233.668 391 233.789 391 233.916C391 234.18 390.942 234.393 390.678 234.393Z" fill="#D3DEBD"/>
<path d="M136.863 276.389H50.6675C50.5407 276.389 50.4191 276.338 50.3295 276.249C50.2399 276.159 50.1895 276.038 50.1895 275.911C50.1895 275.785 50.2399 275.663 50.3295 275.574C50.4191 275.484 50.5407 275.434 50.6675 275.434H136.707C136.833 275.434 136.955 275.484 137.045 275.574C137.134 275.663 137.185 275.785 137.185 275.911C137.185 276.175 137.127 276.389 136.863 276.389Z" fill="#D3DEBD"/>
<path d="M272.135 295H185.94C185.813 295 185.692 294.95 185.602 294.86C185.512 294.771 185.462 294.649 185.462 294.523C185.462 294.396 185.512 294.275 185.602 294.185C185.692 294.096 185.813 294.045 185.94 294.045H271.979C272.106 294.045 272.228 294.096 272.317 294.185C272.407 294.275 272.457 294.396 272.457 294.523C272.457 294.786 272.399 295 272.135 295Z" fill="#D3DEBD"/>
<path d="M353.395 275.911H267.199C267.073 275.911 266.951 275.861 266.861 275.771C266.772 275.682 266.721 275.561 266.721 275.434C266.721 275.307 266.772 275.186 266.861 275.097C266.951 275.007 267.073 274.957 267.199 274.957H353.238C353.365 274.957 353.487 275.007 353.576 275.097C353.666 275.186 353.716 275.307 353.716 275.434C353.716 275.698 353.659 275.911 353.395 275.911Z" fill="#D3DEBD"/>
<path d="M159.296 257.777C153.941 257.777 149.039 257.265 145.145 256.054C140.515 254.615 137.609 252.287 136.504 249.131C135.985 247.791 135.83 246.338 136.055 244.919C136.28 243.5 136.876 242.166 137.784 241.051C144.632 232.142 168.398 229.629 171.587 229.332L178.056 217.102C178.47 214.184 176.511 211.975 179.895 211.92L219.92 211.377C223.243 211.307 222.299 213.362 222.868 216.207L228.966 227.075L202.722 238.134L206.69 247.787L206.431 247.937C198.749 252.386 176.66 257.776 159.296 257.777Z" fill="#2F2E41"/>
<path d="M225.333 227.539C225.333 227.539 261.986 223.352 259.595 240.102C257.205 256.853 229.317 268.718 187.087 240.102L191.868 231.727C191.868 231.727 207.604 230.946 217.166 226.758L225.333 227.539Z" fill="#2F2E41"/>
<path d="M173.442 151.652C173.442 151.652 166.476 150.388 164.576 161.136C162.676 171.885 159.633 197.346 159.633 197.346L150.183 230.051C149.069 230.642 148.146 231.537 147.522 232.632C146.897 233.727 146.598 234.977 146.659 236.235C146.72 237.493 147.138 238.708 147.865 239.738C148.591 240.768 149.596 241.57 150.763 242.051C151.929 242.532 153.208 242.672 154.451 242.454C155.694 242.236 156.849 241.67 157.781 240.821C158.714 239.972 159.385 238.876 159.717 237.661C160.049 236.445 160.027 235.161 159.655 233.957L172.299 199.245L174.709 169.358V153.698C174.709 153.273 174.59 152.857 174.367 152.495C174.143 152.134 173.823 151.842 173.442 151.652V151.652Z" fill="#F7C4A7"/>
<path d="M222.477 151.652C222.477 151.652 229.443 150.388 231.343 161.136C233.243 171.885 236.287 197.346 236.287 197.346L245.736 230.051C246.851 230.642 247.774 231.537 248.398 232.632C249.022 233.727 249.321 234.977 249.26 236.235C249.199 237.493 248.781 238.708 248.055 239.738C247.328 240.768 246.323 241.57 245.157 242.051C243.99 242.532 242.711 242.672 241.468 242.454C240.225 242.236 239.07 241.67 238.138 240.821C237.206 239.972 236.534 238.876 236.202 237.661C235.871 236.445 235.892 235.161 236.264 233.957L223.62 199.245L221.21 169.358V153.698C221.21 153.273 221.329 152.857 221.553 152.495C221.776 152.134 222.096 151.842 222.477 151.652V151.652Z" fill="#F7C4A7"/>
<path d="M221.946 142.767L208.769 137.847L183.228 137.518L172.234 142.767L175.322 160.484C175.322 160.484 169.088 171.024 175.952 181.564L177.492 219.122C177.492 219.122 202.117 233.378 222.902 216.259L218.204 181.339C218.204 181.339 226.062 165.137 219.971 159.118L221.946 142.767Z" fill="white"/>
<path d="M216.579 148.273L221.946 142.767C221.946 142.767 233.659 148.918 233.418 169.492L218.642 164.945L216.579 148.273Z" fill="white"/>
<path d="M178.197 148.273L172.495 142.58C172.495 142.58 162.433 150.35 162.675 170.923L176.133 164.945L178.197 148.273Z" fill="white"/>
<path d="M215.367 243.576C215.367 243.576 211.263 234.954 204.408 239.087C197.554 243.22 184.942 250.085 184.942 250.085C184.942 250.085 181.992 255.008 188.433 253.713C194.875 252.419 215.567 251.408 215.567 251.408L215.367 243.576Z" fill="#F7C4A7"/>
<path d="M203.965 89.4541C204.022 89.3985 204.083 89.3486 204.14 89.2915C207.808 85.6297 208.552 80.4348 205.801 77.6884C203.201 75.0929 198.413 75.6167 194.798 78.7723C191.699 75.8268 187.544 75.0057 184.855 77.039C181.753 79.3837 181.777 84.6313 184.909 88.7599C185.123 89.0426 185.348 89.3099 185.579 89.567C181.412 91.0899 177.814 93.8541 175.272 97.4856C172.73 101.117 171.367 105.441 171.367 109.871V130.449C171.367 131.052 171.486 131.65 171.717 132.207C171.949 132.765 172.288 133.271 172.715 133.698C173.142 134.124 173.65 134.463 174.208 134.694C174.767 134.925 175.365 135.044 175.969 135.044H214.063C215.243 135.044 216.375 134.576 217.209 133.743C218.043 132.91 218.511 131.781 218.511 130.603V109.871C218.511 105.381 217.11 101.003 214.503 97.3438C211.896 93.6851 208.213 90.9275 203.965 89.4541Z" fill="#2F2E41"/>
<path d="M208.323 127.705C215.383 120.657 215.383 109.23 208.323 102.182C201.264 95.1337 189.818 95.1337 182.759 102.182C175.699 109.23 175.699 120.657 182.759 127.705C189.818 134.752 201.264 134.752 208.323 127.705Z" fill="#F7C4A7"/>
<path d="M176.546 103.591C180.677 106.434 185.58 107.947 190.597 107.927C188.807 109.165 186.77 110.002 184.625 110.379C191.296 111.808 198.19 111.846 204.876 110.493C206.362 110.255 207.796 109.763 209.115 109.039C209.772 108.673 210.345 108.172 210.795 107.57C211.246 106.968 211.565 106.279 211.731 105.545C212.176 103.012 210.198 100.709 208.143 99.1578C204.996 96.8186 201.368 95.2069 197.52 94.4394C193.673 93.6718 189.703 93.7677 185.898 94.7199C183.413 95.3612 180.923 96.4447 179.309 98.437C177.695 100.429 177.217 103.501 178.755 105.552L176.546 103.591Z" fill="#2F2E41"/>
<path d="M79.8584 67.5773L80.4281 66.8105L95.604 78.049C94.7792 75.5395 91.8601 67.5842 87.0747 64.41C81.3578 60.6179 77.3356 61.7975 75.1443 65.0904C72.9529 68.3833 73.4221 72.5423 79.1391 76.3345C83.9851 79.5491 92.618 79.1021 95.1367 78.8914L79.8584 67.5773Z" fill="#DCE7C6"/>
<path d="M308.196 6.04735L308.9 6.69277L296.126 20.5929C298.712 20.035 306.94 17.9638 310.6 13.5423C314.972 8.26002 314.216 4.14346 311.163 1.62505C308.111 -0.893356 303.919 -0.860002 299.546 4.42227C295.84 8.89983 295.387 17.5184 295.335 20.0412L308.196 6.04735Z" fill="#DCE7C6"/>
<path d="M102.18 154.462L102.884 155.108L90.1101 169.008C92.6958 168.45 100.924 166.379 104.584 161.957C108.957 156.675 108.2 152.558 105.147 150.04C102.095 147.522 97.903 147.555 93.5305 152.837C89.8242 157.315 89.3715 165.933 89.3195 168.456L102.18 154.462Z" fill="#DCE7C6"/>
<path d="M210.196 21.976L211.023 22.4541L201.56 38.7821C203.964 37.6794 211.55 33.8817 214.166 28.7749C217.291 22.6741 215.661 18.8181 212.136 17.0178C208.61 15.2176 204.525 16.1547 201.399 22.2556C198.75 27.427 200.173 35.9396 200.669 38.414L210.196 21.976Z" fill="#DCE7C6"/>
<path d="M298.625 124.101L299.452 124.579L289.989 140.907C292.393 139.804 299.979 136.006 302.595 130.9C305.72 124.799 304.09 120.943 300.565 119.143C297.039 117.342 292.954 118.279 289.828 124.38C287.179 129.552 288.602 138.064 289.098 140.539L298.625 124.101Z" fill="#DCE7C6"/>
</svg>
