<svg width="558" height="394" viewBox="0 0 558 394" fill="none" xmlns="http://www.w3.org/2000/svg">
<g clip-path="url(#clip0)">
<path opacity="0.2" d="M168.295 26.336C161.429 27.2344 153.968 28.7467 149.431 34.7679C144.066 41.8863 144.785 52.7062 147.216 61.718C149.646 70.7298 153.487 79.5141 153.447 88.9523C153.339 103.957 143.131 116.693 131.512 123.408C119.893 130.122 106.779 132.289 94.2368 136.206C82.5391 139.877 71.3522 145.022 60.9438 151.517C52.1121 157.016 43.2294 164.202 39.6945 175.051C33.8992 192.841 44.5607 211.723 55.0919 226.33C87.3822 271.116 128.544 314.088 178.86 318.438C216.447 321.661 254.074 302.58 291.253 309.579C308.333 312.786 324.246 321.326 340.278 328.848C356.31 336.37 373.174 343.062 390.458 342.209C407.742 341.356 425.666 331.52 433.155 313.502C437.58 302.853 438.027 290.504 442.117 279.678C454.648 246.468 493.702 241.078 516.362 216.084C528.259 202.956 535.057 184.927 540.722 167.062C549.871 137.997 556.731 107.363 555.201 76.4609C554.533 63.0086 552.029 49.0389 544.591 38.6569C539.181 31.1006 531.629 26.0858 524.254 21.236C507.463 10.1944 489.437 -1.20538 470.147 0.108006C459.033 0.8642 448.519 5.82779 437.914 9.71679C417.712 17.1082 396.639 20.7697 375.673 24.3801C341.031 30.3501 305.892 36.3201 270.78 33.3408C255.275 32.016 240.631 26.7283 225.375 24.5621C206.823 21.9296 186.774 23.9196 168.295 26.336Z" fill="#D3DEBD"/>
<path opacity="0.5" d="M448.1 118.245C459.989 118.245 469.626 108.572 469.626 96.6394C469.626 84.707 459.989 75.0338 448.1 75.0338C436.211 75.0338 426.573 84.707 426.573 96.6394C426.573 108.572 436.211 118.245 448.1 118.245Z" fill="#D3DEBD"/>
<path d="M380.307 172.913H183.319L194.575 138.145H200.608L201.815 147.162H357.794L358.599 138.145H365.833L380.307 172.913Z" fill="#D3DEBD"/>
<path opacity="0.2" d="M380.307 172.913H183.319L194.575 138.145H200.608L201.815 147.162H357.794L358.599 138.145H365.833L380.307 172.913Z" fill="black"/>
<path d="M393.976 180.639H165.633L160.002 166.476H398.803L393.976 180.639Z" fill="#D3DEBD"/>
<path d="M386.742 189.657H171.258L165.633 180.639H393.976L386.742 189.657Z" fill="#D3DEBD"/>
<path d="M386.736 187.081H171.258V197.384H386.736V187.081Z" fill="#D3DEBD"/>
<path d="M403.624 214.122H158.393V252.757H403.624V214.122Z" fill="#D3DEBD"/>
<path opacity="0.2" d="M403.624 214.122H158.393V252.757H403.624V214.122Z" fill="black"/>
<path d="M558 344.182L0 340.322L16.0829 248.89H545.939L558 344.182Z" fill="#D3DEBD"/>
<g opacity="0.2">
<path opacity="0.2" d="M158.053 315.856H165.179C167.433 315.856 169.594 316.755 171.188 318.354C172.782 319.953 173.677 322.123 173.677 324.385V341.612H149.555V324.385C149.555 322.123 150.451 319.953 152.044 318.354C153.638 316.755 155.799 315.856 158.053 315.856Z" fill="black"/>
<path opacity="0.2" d="M210.312 315.856H217.439C219.692 315.856 221.854 316.755 223.447 318.354C225.041 319.953 225.936 322.123 225.936 324.385V341.612H201.815V324.385C201.815 322.123 202.71 319.953 204.304 318.354C205.897 316.755 208.058 315.856 210.312 315.856Z" fill="black"/>
<path opacity="0.2" d="M275.437 315.856H282.563C284.817 315.856 286.978 316.755 288.572 318.354C290.165 319.953 291.061 322.123 291.061 324.385V341.612H266.939V324.385C266.939 322.123 267.835 319.953 269.428 318.354C271.022 316.755 273.183 315.856 275.437 315.856V315.856Z" fill="black"/>
<path opacity="0.2" d="M342.975 315.856H350.095C352.349 315.856 354.51 316.755 356.104 318.354C357.698 319.953 358.593 322.123 358.593 324.385V341.612H334.477V324.385C334.477 322.123 335.372 319.953 336.966 318.354C338.56 316.755 340.721 315.856 342.975 315.856Z" fill="black"/>
<path opacity="0.2" d="M396.849 315.856H403.975C406.229 315.856 408.39 316.755 409.984 318.354C411.577 319.953 412.472 322.123 412.472 324.385V341.612H388.351V324.385C388.351 322.123 389.246 319.953 390.84 318.354C392.433 316.755 394.595 315.856 396.849 315.856Z" fill="black"/>
</g>
<path opacity="0.2" d="M291.865 252.757H266.135V304.269H291.865V252.757Z" fill="black"/>
<path d="M162.415 214.122H158.393V252.757H162.415V214.122Z" fill="#D3DEBD"/>
<path d="M185.732 214.122H181.71V252.757H185.732V214.122Z" fill="#D3DEBD"/>
<path d="M211.462 214.122H207.44V252.757H211.462V214.122Z" fill="#D3DEBD"/>
<path d="M236.388 214.122H232.366V252.757H236.388V214.122Z" fill="#D3DEBD"/>
<path d="M263.727 214.122H259.705V252.757H263.727V214.122Z" fill="#D3DEBD"/>
<path d="M300.708 214.122H296.686V252.757H300.708V214.122Z" fill="#D3DEBD"/>
<path d="M325.634 214.122H321.612V252.757H325.634V214.122Z" fill="#D3DEBD"/>
<path d="M353.778 214.122H349.756V252.757H353.778V214.122Z" fill="#D3DEBD"/>
<path d="M377.899 214.122H373.877V252.757H377.899V214.122Z" fill="#D3DEBD"/>
<path d="M403.629 214.122H399.607V252.757H403.629V214.122Z" fill="#D3DEBD"/>
<path d="M403.624 216.698H158.393L143.924 203.82H417.293L403.624 216.698Z" fill="#D3DEBD"/>
<path d="M168.04 216.698H158.393V221.849H168.04V216.698Z" fill="#D3DEBD"/>
<path d="M188.95 216.698H179.302V221.849H188.95V216.698Z" fill="#D3DEBD"/>
<path d="M213.87 216.698H204.222V221.849H213.87V216.698Z" fill="#D3DEBD"/>
<path d="M239.6 216.698H229.953V221.849H239.6V216.698Z" fill="#D3DEBD"/>
<path d="M266.939 216.698H257.292V221.849H266.939V216.698Z" fill="#D3DEBD"/>
<path d="M303.121 216.698H293.474V221.849H303.121V216.698Z" fill="#D3DEBD"/>
<path d="M328.852 216.698H319.204V221.849H328.852V216.698Z" fill="#D3DEBD"/>
<path d="M356.99 216.698H347.342V221.849H356.99V216.698Z" fill="#D3DEBD"/>
<path d="M381.111 216.698H371.464V221.849H381.111V216.698Z" fill="#D3DEBD"/>
<path d="M403.624 216.698H393.976V221.849H403.624V216.698Z" fill="#D3DEBD"/>
<path d="M418.902 203.82H143.12L139.902 194.808H421.315L418.902 203.82Z" fill="#D3DEBD"/>
<path opacity="0.2" d="M418.902 203.82H143.12L139.902 194.808H421.315L418.902 203.82Z" fill="black"/>
<path d="M279 201.244C282.551 201.244 285.43 196.632 285.43 190.942C285.43 185.252 282.551 180.639 279 180.639C275.449 180.639 272.57 185.252 272.57 190.942C272.57 196.632 275.449 201.244 279 201.244Z" fill="#D3DEBD"/>
<path opacity="0.2" d="M279 201.244C282.551 201.244 285.43 196.632 285.43 190.942C285.43 185.252 282.551 180.639 279 180.639C275.449 180.639 272.57 185.252 272.57 190.942C272.57 196.632 275.449 201.244 279 201.244Z" fill="black"/>
<path d="M279 197.378C281.221 197.378 283.022 194.497 283.022 190.942C283.022 187.387 281.221 184.506 279 184.506C276.779 184.506 274.978 187.387 274.978 190.942C274.978 194.497 276.779 197.378 279 197.378Z" fill="#D3DEBD"/>
<path d="M373.135 339.509L345.558 318.267C345.558 318.267 343.331 309.414 342.442 303.217C341.553 297.02 340.216 270.467 340.216 270.467C340.849 268.169 341.268 265.816 341.468 263.44C341.74 263.383 342.034 263.315 342.289 263.241C344.35 262.714 346.262 261.714 347.873 260.32C349.484 258.926 350.751 257.176 351.574 255.207C354.407 248.134 350.747 239.776 346.113 234.17C341.479 228.564 335.65 224.061 332.602 217.113C328.84 208.55 330.126 198.203 328.206 188.833C328.022 187.52 327.535 186.268 326.784 185.177C325.594 183.693 323.731 183.369 322.065 182.777C316.808 180.907 312.865 175.778 309.789 170.428C304.81 161.757 299.655 148.572 289.395 147.822C285.583 147.543 281.6 148.834 277.748 148.822C271.772 148.822 265.852 148.896 259.926 149.721C257.807 150.011 255.609 150.409 253.842 151.813C247.775 156.629 250.522 169.359 244.676 174.556C242.937 176.097 240.71 176.648 238.745 177.706C231.335 181.686 228.044 192.301 228.48 201.853C228.684 206.327 229.613 210.99 232.247 214.259C234.332 216.874 237.306 218.375 239.249 221.133C242.387 225.585 241.962 231.486 241.623 237.491C237.43 239.253 234.065 241.277 233.006 243.455C229.448 250.755 229.89 275.761 229.89 275.761C229.89 275.761 231.227 316.698 220.996 321.815L182.741 348.367C182.741 348.367 155.606 324.692 148.932 338.633C144.366 348.168 161.027 353.564 172.011 356.02C165.083 360.955 161.248 370.075 164.5 376.255C169.598 385.989 183.851 392.63 183.851 392.63C183.851 392.63 238.207 395.262 263.331 389.611H263.744C274.411 391.549 289.718 393.591 301.994 392.363C302.226 392.931 302.391 393.295 302.391 393.295C302.391 393.295 381.134 399.936 395.359 372.935C402.661 359.09 395.041 352.694 385.887 349.748C396.135 348.93 407.805 346.053 409.147 337.308C411.611 321.366 373.135 339.509 373.135 339.509ZM365.204 347.975C350.798 353.245 339.1 353.541 332.874 353.143C329.809 346.451 317.057 317.442 316.723 298.032C316.802 293.699 317.573 289.912 319.295 287.07C323.006 280.946 324.099 276.147 323.974 272.497C323.974 272.224 323.974 271.963 323.974 271.701C323.991 270.586 323.883 269.472 323.651 268.381C324.263 269.881 324.446 271.524 324.178 273.123C322.841 279.985 326.405 324.459 326.405 324.459C326.405 324.459 329.294 334.414 335.299 337.291L365.204 347.975ZM224.118 344.83L237.906 335.978C237.906 335.978 244.359 332.89 245.01 325.346L249.542 289.395C249.853 290.936 250.262 292.455 250.766 293.944C251.57 296.303 251.899 299.76 251.961 303.876C251.808 323.918 245.01 357.214 245.01 357.214H245.095L245.044 357.453L244.563 357.481C233.374 357.14 207.304 356.162 192.705 354.132L224.118 344.83ZM199.957 365.788V365.867H196.558L199.957 365.788Z" fill="url(#paint0_linear)"/>
<path d="M308.752 174.044C311.727 179.264 315.55 184.278 320.621 186.086C322.229 186.655 324.02 186.979 325.153 188.423C325.877 189.49 326.346 190.71 326.523 191.988C328.376 201.125 327.135 211.217 330.772 219.564C333.718 226.324 339.355 230.73 343.836 236.183C348.317 241.635 351.835 249.789 349.115 256.68C348.33 258.589 347.115 260.29 345.565 261.65C344.015 263.009 342.172 263.99 340.182 264.515C336.432 265.532 332.517 265.083 328.71 264.429C323.691 263.537 318.581 262.155 314.4 258.744C307.166 252.848 304.107 242.255 300.323 232.84C298.544 228.428 296.182 223.805 292.273 222.224C287.792 220.416 282.762 223.436 279.855 227.865C276.949 232.294 275.658 237.86 274.253 243.216C272.667 249.26 270.655 255.543 266.486 259.494C264.678 261.265 262.397 262.472 259.92 262.969C257.443 263.467 254.875 263.233 252.528 262.297C247.882 260.353 244.206 255.44 243.141 249.737C241.492 240.947 245.441 230.406 240.597 223.458C238.716 220.769 235.844 219.302 233.799 216.755C231.278 213.565 230.355 209.022 230.157 204.661C229.732 195.348 232.915 184.972 240.076 181.117C241.991 180.088 244.126 179.548 245.809 178.047C251.474 172.998 248.806 160.586 254.669 155.873C256.368 154.502 258.498 154.122 260.549 153.832C266.293 153.03 271.998 152.939 277.776 152.956C281.504 152.956 285.35 151.711 289.038 151.984C298.958 152.734 303.926 165.59 308.752 174.044Z" fill="#452D3A"/>
<path d="M202.404 362.268L204.574 388.064L356.327 387.16L353.438 358.999L302.13 353.006L212.159 358.453L202.404 362.268Z" fill="#575988"/>
<path opacity="0.05" d="M202.404 362.268L204.574 388.064L356.327 387.16L353.438 358.999L302.13 353.006L212.159 358.453L202.404 362.268Z" fill="black"/>
<path d="M302.26 380.303L251.74 385.051C251.74 385.051 286.353 393.898 306.56 389.599L302.26 380.303Z" fill="#F7C4A7"/>
<path opacity="0.1" d="M302.26 380.303L251.74 385.051C251.74 385.051 286.353 393.898 306.56 389.599L302.26 380.303Z" fill="black"/>
<path d="M263.778 198.629C263.778 198.629 273.669 224.738 259.048 236.388C244.427 248.037 256.47 280.622 256.47 280.622L312.797 278.035C312.797 278.035 318.389 241.357 315.375 233.584C315.375 233.584 302.045 237.468 299.037 229.269C296.029 221.07 293.876 198.629 293.876 198.629H263.778Z" fill="#F7C4A7"/>
<path d="M250.879 356.566C250.879 356.566 203.367 355.485 189.397 352.017C175.427 348.549 163.384 365.179 168.329 374.674C173.275 384.169 187.023 390.64 187.023 390.64C187.023 390.64 257.751 394.091 273.018 384.386C273.018 384.386 278.824 367.772 273.018 364.537H199.288L253.672 363.457L250.879 356.566Z" fill="#575988"/>
<path d="M326.342 351.608C326.342 351.608 342.249 355.059 364.179 346.428C364.179 346.428 405.238 345.132 391.484 371.445C377.729 397.758 301.62 391.294 301.62 391.294C301.62 391.294 297.088 381.583 301.62 378.996C306.152 376.409 345.478 359.795 357.704 360.654L323.714 367.34L326.342 351.608Z" fill="#575988"/>
<path opacity="0.1" d="M295.825 211.189C295.004 205.042 294.522 200.033 294.522 200.033H264.424C265.814 203.99 266.779 208.084 267.302 212.246C271.522 215.212 276.592 216.713 281.74 216.523C286.889 216.332 291.834 214.459 295.825 211.189V211.189Z" fill="black"/>
<path d="M280.224 215.129C293.283 215.129 303.869 204.504 303.869 191.397C303.869 178.29 293.283 167.665 280.224 167.665C267.165 167.665 256.578 178.29 256.578 191.397C256.578 204.504 267.165 215.129 280.224 215.129Z" fill="#F7C4A7"/>
<path d="M266.361 232.72C266.361 232.72 237.986 238.116 234.547 245.229C231.108 252.341 231.539 276.733 231.539 276.733C231.539 276.733 232.83 316.652 222.939 321.61L185.964 347.503C185.964 347.503 159.735 324.413 153.289 338.008C146.842 351.602 184.248 356.566 184.248 356.566L225.953 344.057L239.283 335.426C239.283 335.426 245.514 332.407 246.16 325.067L251.751 280.616L274.111 274.146H310.214L315.052 260.284C315.052 260.284 323.974 267.46 322.683 274.146C321.391 280.832 324.83 324.18 324.83 324.18C324.83 324.18 327.622 333.891 333.429 336.688L366.971 348.81C366.971 348.81 402.445 352.261 404.808 336.728C407.17 321.195 369.979 338.883 369.979 338.883L343.32 318.17C343.32 318.17 341.173 309.539 340.312 303.495C339.451 297.452 338.165 271.565 338.165 271.565C338.165 271.565 346.334 244.376 322.688 239.634L292.16 230.139L266.361 232.72Z" fill="#F7C4A7"/>
<path opacity="0.1" d="M247.333 238.218L251.74 267.454C251.74 267.454 247.208 281.048 251.74 294.427C256.272 307.805 246.143 357.646 246.143 357.646C246.143 357.646 299.241 374.703 331.684 355.059C331.684 355.059 307.823 304.57 317.924 287.741C328.025 270.911 318.088 264.327 318.088 264.327L319.675 233.391L312.367 231.236L308.067 261.82C308.067 261.82 278.4 282.532 256.47 264.406L251.74 231.179L247.333 238.218Z" fill="black"/>
<path opacity="0.07" d="M278.003 272.969C275.707 269.285 272.125 266.592 267.958 265.416C263.79 264.24 259.335 264.664 255.462 266.607C262.662 272.014 270.599 273.458 278.003 272.969Z" fill="white"/>
<path opacity="0.07" d="M290.188 269.728C292.485 266.044 296.066 263.352 300.234 262.175C304.402 260.999 308.857 261.423 312.729 263.366C305.535 268.773 297.592 270.223 290.188 269.728Z" fill="white"/>
<path opacity="0.1" d="M247.333 238.218L251.74 265.942C251.74 265.942 247.208 279.536 251.74 292.914C256.272 306.293 246.143 356.133 246.143 356.133C246.143 356.133 299.241 373.19 331.684 353.546C331.684 353.546 307.823 303.058 317.924 286.228C328.025 269.399 318.088 262.815 318.088 262.815L319.641 231.856L312.333 229.701L308.033 260.341C308.033 260.341 278.366 281.054 256.436 262.928L251.706 229.701L247.333 238.218Z" fill="black"/>
<path d="M247.118 238.002L251.74 266.374C251.74 266.374 247.208 279.968 251.74 293.347C256.272 306.725 246.143 356.566 246.143 356.566C246.143 356.566 299.241 373.623 331.684 353.979C331.684 353.979 307.823 303.49 317.924 286.66C328.025 269.831 318.088 263.247 318.088 263.247L319.641 232.288L312.333 230.133L308.033 260.773C308.033 260.773 278.366 281.486 256.436 263.36L251.706 230.133L247.118 238.002Z" fill="#B6C7DB"/>
<path d="M268.939 367.141L280.133 365.629C280.133 365.629 293.032 349.015 302.277 361.745C302.277 361.745 306.147 369.944 310.877 371.456C314.112 372.437 317.419 373.158 320.768 373.611L301.637 379.007C301.637 379.007 293.253 383.97 284.438 382.674C279.25 381.881 273.948 382.325 268.962 383.97L268.939 367.141Z" fill="#F7C4A7"/>
<path opacity="0.1" d="M256.578 296.69C256.578 296.69 276.785 299.709 280.224 294.319Z" fill="black"/>
<path opacity="0.1" d="M294.862 293.239C294.862 293.239 298.731 297.122 314.208 294.319Z" fill="black"/>
<path opacity="0.1" d="M255.502 233.039C255.502 233.039 270.333 235.194 273.131 233.903Z" fill="black"/>
<path opacity="0.1" d="M288.183 233.039C288.183 233.039 303.014 235.194 305.812 233.903Z" fill="black"/>
<path opacity="0.1" d="M270.554 365.52C270.554 365.52 274.638 384.852 270.554 385.534C266.469 386.216 260.662 382.35 260.662 381.918C260.662 381.486 263.24 369.188 263.24 369.188L270.554 365.52Z" fill="black"/>
<path d="M270.123 365.52C270.123 365.52 274.208 384.852 270.123 385.534C266.039 386.216 260.232 382.35 260.232 381.918C260.232 381.486 262.81 369.188 262.81 369.188L270.123 365.52Z" fill="#575988"/>
<path opacity="0.1" d="M250.165 230.213C248.364 234.415 247.724 239.372 249.638 243.523C251.1 246.69 253.955 249.254 254.505 252.7C255.196 257.021 252.006 261.416 253.196 265.623C253.649 267.238 254.709 268.603 255.785 269.882C259.059 273.765 263.41 277.523 268.463 277.222C269.262 269.387 262.515 261.785 264.724 254.229C265.517 251.523 267.375 249.271 268.497 246.69C270.361 242.409 270.095 237.519 269.421 232.896C268.44 226.193 265.959 217.966 259.337 214.827C256.289 213.383 251.972 213.281 250.885 217.198C250.318 219.291 251.678 221.258 251.865 223.305C252.103 225.903 251.168 227.876 250.165 230.213Z" fill="black"/>
<path d="M250.165 229.565C248.364 233.766 247.724 238.724 249.638 242.875C251.1 246.042 253.955 248.606 254.505 252.052C255.196 256.373 252.006 260.768 253.196 264.975C253.649 266.59 254.709 267.954 255.785 269.234C259.059 273.117 263.41 276.875 268.463 276.574C269.262 268.739 262.515 261.137 264.724 253.581C265.517 250.875 267.375 248.623 268.497 246.042C270.361 241.76 270.095 236.871 269.421 232.248C268.44 225.545 265.959 217.318 259.337 214.179C256.289 212.735 251.972 212.633 250.885 216.55C250.318 218.643 251.678 220.61 251.865 222.657C252.103 225.261 251.168 227.234 250.165 229.565Z" fill="#452D3A"/>
<path opacity="0.1" d="M251.848 179.747C251.848 179.747 283.237 175.431 284.093 181.902C284.948 188.372 312.684 198.959 312.684 198.959L305.807 181.902L293.123 160.757C293.123 160.757 269.896 159.051 268.831 160.757C267.766 162.462 255.502 168.091 255.502 168.091L251.848 179.747Z" fill="black"/>
<path d="M251.848 179.315C251.848 179.315 283.237 174.999 284.093 181.47C284.948 187.94 312.684 198.527 312.684 198.527L305.807 181.47L293.123 160.33C293.123 160.33 269.896 158.625 268.831 160.33C267.766 162.036 255.502 167.665 255.502 167.665L251.848 179.315Z" fill="#452D3A"/>
<path opacity="0.1" d="M306.469 225.431C307.996 227.266 309.074 229.433 309.619 231.759C310.14 233.982 310.157 236.308 310.656 238.537C311.715 243.284 314.842 247.276 318.111 250.869C319.169 252.171 320.46 253.262 321.918 254.087C323.413 254.826 325.317 254.98 326.705 254.087C325.39 253.007 324.677 251.352 324.206 249.709C323.545 247.418 323.251 245.037 323.334 242.653C323.476 238.673 324.637 234.471 322.989 230.844C322.037 228.752 320.264 227.16 318.457 225.727C317.201 224.702 315.846 223.807 314.412 223.055C311.744 221.718 308.679 221.133 305.733 220.843C301.892 220.445 305.251 223.964 306.469 225.431Z" fill="black"/>
<path d="M306.469 224.777C307.997 226.615 309.076 228.786 309.619 231.117C310.14 233.34 310.157 235.665 310.656 237.894C311.715 242.642 314.842 246.633 318.111 250.226C319.169 251.528 320.46 252.62 321.918 253.445C323.413 254.184 325.317 254.337 326.705 253.445C325.39 252.364 324.677 250.71 324.206 249.067C323.545 246.776 323.251 244.394 323.334 242.011C323.476 238.031 324.637 233.829 322.989 230.201C322.037 228.109 320.264 226.517 318.457 225.084C317.201 224.06 315.846 223.165 314.412 222.412C311.744 221.076 308.679 220.49 305.733 220.2C301.892 219.797 305.251 223.316 306.469 224.777Z" fill="#452D3A"/>
<path opacity="0.1" d="M292.415 94.0467H288.517C288.886 94.0636 289.254 94.0053 289.6 93.8753C289.945 93.7453 290.261 93.5464 290.528 93.2905C290.795 93.0346 291.007 92.7271 291.152 92.3866C291.297 92.046 291.372 91.6794 291.372 91.3091C291.372 90.9387 291.297 90.5721 291.152 90.2315C291.007 89.891 290.795 89.5835 290.528 89.3276C290.261 89.0717 289.945 88.8728 289.6 88.7428C289.254 88.6128 288.886 88.5545 288.517 88.5714H256.946C256.244 88.6035 255.582 88.906 255.096 89.4159C254.611 89.9257 254.34 90.6038 254.34 91.3091C254.34 92.0143 254.611 92.6923 255.096 93.2022C255.582 93.7121 256.244 94.0146 256.946 94.0467H260.844C260.475 94.0298 260.107 94.0882 259.761 94.2181C259.416 94.3481 259.1 94.547 258.833 94.8029C258.566 95.0588 258.354 95.3663 258.209 95.7068C258.064 96.0474 257.989 96.414 257.989 96.7843C257.989 97.1547 258.064 97.5213 258.209 97.8619C258.354 98.2024 258.566 98.5099 258.833 98.7658C259.1 99.0217 259.416 99.2206 259.761 99.3506C260.107 99.4806 260.475 99.5389 260.844 99.522H255.388C255.02 99.5051 254.651 99.5635 254.306 99.6934C253.96 99.8234 253.645 100.022 253.378 100.278C253.111 100.534 252.899 100.842 252.753 101.182C252.608 101.523 252.534 101.889 252.534 102.26C252.534 102.63 252.608 102.997 252.753 103.337C252.899 103.678 253.111 103.985 253.378 104.241C253.645 104.497 253.96 104.696 254.306 104.826C254.651 104.956 255.02 105.014 255.388 104.997H286.959C287.328 105.014 287.696 104.956 288.042 104.826C288.387 104.696 288.703 104.497 288.97 104.241C289.237 103.985 289.449 103.678 289.594 103.337C289.739 102.997 289.814 102.63 289.814 102.26C289.814 101.889 289.739 101.523 289.594 101.182C289.449 100.842 289.237 100.534 288.97 100.278C288.703 100.022 288.387 99.8234 288.042 99.6934C287.696 99.5635 287.328 99.5051 286.959 99.522H292.415C292.783 99.5389 293.152 99.4806 293.497 99.3506C293.843 99.2206 294.158 99.0217 294.425 98.7658C294.692 98.5099 294.905 98.2024 295.05 97.8619C295.195 97.5213 295.27 97.1547 295.27 96.7843C295.27 96.414 295.195 96.0474 295.05 95.7068C294.905 95.3663 294.692 95.0588 294.425 94.8029C294.158 94.547 293.843 94.3481 293.497 94.2181C293.152 94.0882 292.783 94.0298 292.415 94.0467V94.0467Z" fill="#252223"/>
<path opacity="0.1" d="M445.369 94.0467H441.471C441.84 94.0636 442.208 94.0053 442.554 93.8753C442.9 93.7453 443.215 93.5464 443.482 93.2905C443.749 93.0346 443.961 92.7271 444.106 92.3866C444.252 92.046 444.326 91.6794 444.326 91.3091C444.326 90.9387 444.252 90.5721 444.106 90.2315C443.961 89.891 443.749 89.5835 443.482 89.3276C443.215 89.0717 442.9 88.8728 442.554 88.7428C442.208 88.6128 441.84 88.5545 441.471 88.5714H409.901C409.199 88.6035 408.536 88.906 408.051 89.4159C407.565 89.9257 407.294 90.6038 407.294 91.3091C407.294 92.0143 407.565 92.6923 408.051 93.2022C408.536 93.7121 409.199 94.0146 409.901 94.0467H413.798C413.429 94.0298 413.061 94.0882 412.716 94.2181C412.37 94.3481 412.054 94.547 411.787 94.8029C411.521 95.0588 411.308 95.3663 411.163 95.7068C411.018 96.0474 410.943 96.414 410.943 96.7843C410.943 97.1547 411.018 97.5213 411.163 97.8619C411.308 98.2024 411.521 98.5099 411.787 98.7658C412.054 99.0217 412.37 99.2206 412.716 99.3506C413.061 99.4806 413.429 99.5389 413.798 99.522H408.343C407.974 99.5051 407.606 99.5635 407.26 99.6934C406.915 99.8234 406.599 100.022 406.332 100.278C406.065 100.534 405.853 100.842 405.708 101.182C405.563 101.523 405.488 101.889 405.488 102.26C405.488 102.63 405.563 102.997 405.708 103.337C405.853 103.678 406.065 103.985 406.332 104.241C406.599 104.497 406.915 104.696 407.26 104.826C407.606 104.956 407.974 105.014 408.343 104.997H439.914C440.282 105.014 440.65 104.956 440.996 104.826C441.342 104.696 441.657 104.497 441.924 104.241C442.191 103.985 442.403 103.678 442.549 103.337C442.694 102.997 442.768 102.63 442.768 102.26C442.768 101.889 442.694 101.523 442.549 101.182C442.403 100.842 442.191 100.534 441.924 100.278C441.657 100.022 441.342 99.8234 440.996 99.6934C440.65 99.5635 440.282 99.5051 439.914 99.522H445.369C445.738 99.5389 446.106 99.4806 446.451 99.3506C446.797 99.2206 447.113 99.0217 447.38 98.7658C447.646 98.5099 447.859 98.2024 448.004 97.8619C448.149 97.5213 448.224 97.1547 448.224 96.7843C448.224 96.414 448.149 96.0474 448.004 95.7068C447.859 95.3663 447.646 95.0588 447.38 94.8029C447.113 94.547 446.797 94.3481 446.451 94.2181C446.106 94.0882 445.738 94.0298 445.369 94.0467V94.0467Z" fill="#252223"/>
<path opacity="0.1" d="M119.633 163.98H115.735C116.104 163.997 116.472 163.939 116.818 163.809C117.164 163.679 117.479 163.48 117.746 163.224C118.013 162.968 118.225 162.661 118.37 162.32C118.516 161.98 118.59 161.613 118.59 161.243C118.59 160.872 118.516 160.506 118.37 160.165C118.225 159.825 118.013 159.517 117.746 159.261C117.479 159.005 117.164 158.807 116.818 158.677C116.472 158.547 116.104 158.488 115.735 158.505H84.1646C83.4626 158.537 82.8001 158.84 82.3146 159.35C81.8292 159.86 81.5584 160.538 81.5584 161.243C81.5584 161.948 81.8292 162.626 82.3146 163.136C82.8001 163.646 83.4626 163.948 84.1646 163.98H88.0621C87.3601 164.013 86.6976 164.315 86.2122 164.825C85.7268 165.335 85.4559 166.013 85.4559 166.718C85.4559 167.423 85.7268 168.101 86.2122 168.611C86.6976 169.121 87.3601 169.424 88.0621 169.456H82.6067C82.238 169.439 81.8698 169.497 81.5242 169.627C81.1786 169.757 80.8629 169.956 80.5961 170.212C80.3292 170.468 80.1168 170.775 79.9717 171.116C79.8266 171.456 79.7518 171.823 79.7518 172.193C79.7518 172.564 79.8266 172.93 79.9717 173.271C80.1168 173.611 80.3292 173.919 80.5961 174.175C80.8629 174.431 81.1786 174.63 81.5242 174.76C81.8698 174.89 82.238 174.948 82.6067 174.931H114.178C114.546 174.948 114.915 174.89 115.26 174.76C115.606 174.63 115.921 174.431 116.188 174.175C116.455 173.919 116.667 173.611 116.813 173.271C116.958 172.93 117.032 172.564 117.032 172.193C117.032 171.823 116.958 171.456 116.813 171.116C116.667 170.775 116.455 170.468 116.188 170.212C115.921 169.956 115.606 169.757 115.26 169.627C114.915 169.497 114.546 169.439 114.178 169.456H119.633C120.335 169.424 120.997 169.121 121.483 168.611C121.968 168.101 122.239 167.423 122.239 166.718C122.239 166.013 121.968 165.335 121.483 164.825C120.997 164.315 120.335 164.013 119.633 163.98V163.98Z" fill="#252223"/>
<path d="M446.814 383.851C446.814 383.851 432.838 336.228 449.436 301.176C456.404 286.467 458.716 269.95 455.498 253.985C453.959 246.405 451.731 238.982 448.842 231.811" stroke="#535461" stroke-width="2" stroke-miterlimit="10"/>
<path d="M459.146 209.688C459.146 215.527 448.615 232.43 448.615 232.43C448.615 232.43 438.084 215.504 438.084 209.688C438.051 208.279 438.3 206.879 438.814 205.568C439.328 204.257 440.099 203.063 441.08 202.056C442.061 201.048 443.232 200.248 444.526 199.701C445.819 199.154 447.209 198.873 448.612 198.873C450.016 198.873 451.405 199.154 452.699 199.701C453.992 200.248 455.164 201.048 456.145 202.056C457.126 203.063 457.896 204.257 458.41 205.568C458.925 206.879 459.173 208.279 459.141 209.688H459.146Z" fill="#D3DEBD"/>
<path d="M476.572 242.016C473.411 246.917 455.407 255.378 455.407 255.378C455.407 255.378 455.736 235.427 458.897 230.526C460.447 228.249 462.823 226.671 465.516 226.128C468.21 225.585 471.008 226.12 473.314 227.619C475.62 229.117 477.251 231.461 477.86 234.149C478.469 236.838 478.006 239.659 476.572 242.011V242.016Z" fill="#D3DEBD"/>
<path d="M475.807 297.264C470.612 299.891 450.819 298.077 450.819 298.077C450.819 298.077 461.135 281.02 466.329 278.393C467.567 277.735 468.923 277.332 470.318 277.206C471.713 277.081 473.119 277.236 474.454 277.662C475.788 278.089 477.025 278.778 478.091 279.691C479.157 280.603 480.03 281.719 480.661 282.974C481.292 284.229 481.667 285.598 481.764 287C481.861 288.403 481.679 289.81 481.227 291.141C480.776 292.472 480.064 293.699 479.135 294.75C478.205 295.801 477.075 296.656 475.813 297.264H475.807Z" fill="#D3DEBD"/>
<path d="M465.854 338.934C461.18 342.403 441.358 343.972 441.358 343.972C441.358 343.972 448.655 325.414 453.328 321.94C454.439 321.101 455.704 320.492 457.051 320.146C458.398 319.801 459.8 319.726 461.175 319.927C462.551 320.128 463.873 320.601 465.066 321.317C466.259 322.033 467.298 322.979 468.125 324.101C468.952 325.223 469.549 326.498 469.882 327.852C470.216 329.206 470.279 330.614 470.068 331.993C469.856 333.371 469.375 334.695 468.652 335.886C467.929 337.078 466.978 338.114 465.854 338.934V338.934Z" fill="#D3DEBD"/>
<path d="M433.297 256.509C437.466 260.574 456.903 264.787 456.903 264.787C456.903 264.787 452.144 245.416 447.975 241.345C445.958 239.47 443.29 238.461 440.541 238.534C437.792 238.607 435.181 239.756 433.265 241.735C431.349 243.714 430.281 246.367 430.288 249.127C430.295 251.886 431.377 254.534 433.303 256.503L433.297 256.509Z" fill="#D3DEBD"/>
<path d="M422.273 305.389C427.468 308.016 447.261 306.202 447.261 306.202C447.261 306.202 436.945 289.145 431.75 286.518C430.513 285.86 429.157 285.457 427.762 285.331C426.366 285.206 424.961 285.361 423.626 285.787C422.291 286.214 421.055 286.903 419.989 287.815C418.923 288.727 418.049 289.844 417.419 291.099C416.788 292.354 416.413 293.723 416.316 295.125C416.218 296.527 416.401 297.935 416.852 299.266C417.304 300.597 418.015 301.824 418.945 302.875C419.875 303.926 421.004 304.781 422.267 305.389H422.273Z" fill="#D3DEBD"/>
<path d="M418.053 354.377C422.726 357.845 442.548 359.414 442.548 359.414C442.548 359.414 435.251 340.85 430.572 337.382C429.461 336.544 428.196 335.934 426.849 335.589C425.502 335.243 424.101 335.169 422.725 335.37C421.35 335.571 420.027 336.043 418.834 336.759C417.642 337.476 416.602 338.422 415.775 339.543C414.949 340.665 414.351 341.94 414.018 343.294C413.685 344.649 413.622 346.056 413.833 347.435C414.044 348.814 414.525 350.137 415.248 351.329C415.972 352.52 416.923 353.556 418.047 354.377H418.053Z" fill="#D3DEBD"/>
<path d="M459.146 209.688C459.146 215.527 448.615 232.43 448.615 232.43C448.615 232.43 438.084 215.504 438.084 209.688C438.051 208.279 438.3 206.879 438.814 205.568C439.328 204.257 440.099 203.063 441.08 202.056C442.061 201.048 443.232 200.248 444.526 199.701C445.819 199.154 447.209 198.873 448.612 198.873C450.016 198.873 451.405 199.154 452.699 199.701C453.992 200.248 455.164 201.048 456.145 202.056C457.126 203.063 457.896 204.257 458.41 205.568C458.925 206.879 459.173 208.279 459.141 209.688H459.146Z" fill="#B6C7DB"/>
<path d="M476.572 242.016C473.411 246.917 455.407 255.378 455.407 255.378C455.407 255.378 455.736 235.427 458.897 230.526C460.447 228.249 462.823 226.671 465.516 226.128C468.21 225.585 471.008 226.12 473.314 227.619C475.62 229.117 477.251 231.461 477.86 234.149C478.469 236.838 478.006 239.659 476.572 242.011V242.016Z" fill="#B6C7DB"/>
<path d="M475.807 297.264C470.612 299.891 450.819 298.077 450.819 298.077C450.819 298.077 461.135 281.02 466.329 278.393C467.567 277.735 468.923 277.332 470.318 277.206C471.713 277.081 473.119 277.236 474.454 277.662C475.788 278.089 477.025 278.778 478.091 279.691C479.157 280.603 480.03 281.719 480.661 282.974C481.292 284.229 481.667 285.598 481.764 287C481.861 288.403 481.679 289.81 481.227 291.141C480.776 292.472 480.064 293.699 479.135 294.75C478.205 295.801 477.075 296.656 475.813 297.264H475.807Z" fill="#B6C7DB"/>
<path d="M465.854 338.934C461.18 342.403 441.358 343.972 441.358 343.972C441.358 343.972 448.655 325.414 453.328 321.94C454.439 321.101 455.704 320.492 457.051 320.146C458.398 319.801 459.8 319.726 461.175 319.927C462.551 320.128 463.873 320.601 465.066 321.317C466.259 322.033 467.298 322.979 468.125 324.101C468.952 325.223 469.549 326.498 469.882 327.852C470.216 329.206 470.279 330.614 470.068 331.993C469.856 333.371 469.375 334.695 468.652 335.886C467.929 337.078 466.978 338.114 465.854 338.934V338.934Z" fill="#B6C7DB"/>
<path d="M433.297 256.509C437.466 260.574 456.903 264.787 456.903 264.787C456.903 264.787 452.144 245.416 447.975 241.345C445.958 239.47 443.29 238.461 440.541 238.534C437.792 238.607 435.181 239.756 433.265 241.735C431.349 243.714 430.281 246.367 430.288 249.127C430.295 251.886 431.377 254.534 433.303 256.503L433.297 256.509Z" fill="#B6C7DB"/>
<path d="M422.273 305.389C427.468 308.016 447.261 306.202 447.261 306.202C447.261 306.202 436.945 289.145 431.75 286.518C430.513 285.86 429.157 285.457 427.762 285.331C426.366 285.206 424.961 285.361 423.626 285.787C422.291 286.214 421.055 286.903 419.989 287.815C418.923 288.727 418.049 289.844 417.419 291.099C416.788 292.354 416.413 293.723 416.316 295.125C416.218 296.527 416.401 297.935 416.852 299.266C417.304 300.597 418.015 301.824 418.945 302.875C419.875 303.926 421.004 304.781 422.267 305.389H422.273Z" fill="#B6C7DB"/>
<path d="M418.053 354.377C422.726 357.845 442.548 359.414 442.548 359.414C442.548 359.414 435.251 340.85 430.572 337.382C429.461 336.544 428.196 335.934 426.849 335.589C425.502 335.243 424.101 335.169 422.725 335.37C421.35 335.571 420.027 336.043 418.834 336.759C417.642 337.476 416.602 338.422 415.775 339.543C414.949 340.665 414.351 341.94 414.018 343.294C413.685 344.649 413.622 346.056 413.833 347.435C414.044 348.814 414.525 350.137 415.248 351.329C415.972 352.52 416.923 353.556 418.047 354.377H418.053Z" fill="#B6C7DB"/>
<path d="M117.112 382.714C117.112 382.714 103.137 335.091 119.735 300.039C126.703 285.33 129.014 268.813 125.796 252.848C124.258 245.267 122.03 237.845 119.14 230.673" stroke="#535461" stroke-width="2" stroke-miterlimit="10"/>
<path d="M129.445 208.55C129.445 214.39 118.913 231.293 118.913 231.293C118.913 231.293 108.382 214.367 108.382 208.55C108.35 207.142 108.598 205.742 109.112 204.431C109.627 203.12 110.397 201.926 111.378 200.919C112.359 199.911 113.531 199.11 114.824 198.564C116.118 198.017 117.507 197.736 118.911 197.736C120.314 197.736 121.704 198.017 122.997 198.564C124.291 199.11 125.462 199.911 126.443 200.919C127.424 201.926 128.194 203.12 128.709 204.431C129.223 205.742 129.472 207.142 129.439 208.55H129.445Z" fill="#D3DEBD"/>
<path d="M146.87 240.879C143.709 245.78 125.706 254.241 125.706 254.241C125.706 254.241 126.034 234.289 129.195 229.388C130.746 227.112 133.121 225.534 135.815 224.991C138.508 224.448 141.306 224.983 143.612 226.481C145.919 227.98 147.55 230.324 148.158 233.012C148.767 235.701 148.305 238.522 146.87 240.873V240.879Z" fill="#D3DEBD"/>
<path d="M146.105 296.127C140.911 298.754 121.117 296.94 121.117 296.94C121.117 296.94 131.433 279.883 136.628 277.256C139.113 276.06 141.967 275.889 144.577 276.781C147.186 277.673 149.344 279.556 150.585 282.026C151.826 284.497 152.053 287.357 151.217 289.994C150.38 292.63 148.547 294.832 146.111 296.127H146.105Z" fill="#D3DEBD"/>
<path d="M136.152 337.797C131.478 341.265 111.657 342.835 111.657 342.835C111.657 342.835 118.953 324.277 123.627 320.803C124.738 319.964 126.003 319.355 127.35 319.009C128.696 318.664 130.098 318.589 131.474 318.79C132.849 318.991 134.172 319.463 135.364 320.18C136.557 320.896 137.597 321.842 138.424 322.964C139.25 324.086 139.847 325.36 140.181 326.715C140.514 328.069 140.577 329.476 140.366 330.855C140.155 332.234 139.674 333.558 138.95 334.749C138.227 335.941 137.276 336.976 136.152 337.797V337.797Z" fill="#D3DEBD"/>
<path d="M103.595 255.372C107.765 259.437 127.201 263.65 127.201 263.65C127.201 263.65 122.443 244.279 118.273 240.208C116.256 238.333 113.588 237.324 110.839 237.397C108.091 237.47 105.48 238.619 103.564 240.598C101.648 242.577 100.579 245.23 100.586 247.99C100.593 250.749 101.675 253.397 103.601 255.366L103.595 255.372Z" fill="#D3DEBD"/>
<path d="M92.5714 304.252C97.7662 306.878 117.56 305.065 117.56 305.065C117.56 305.065 107.244 288.008 102.049 285.381C99.5633 284.184 96.7093 284.014 94.0998 284.906C91.4902 285.798 89.3332 287.681 88.0918 290.151C86.8503 292.622 86.6235 295.482 87.46 298.118C88.2965 300.755 90.1296 302.957 92.5657 304.252H92.5714Z" fill="#D3DEBD"/>
<path d="M88.3509 353.239C93.0245 356.708 112.846 358.277 112.846 358.277C112.846 358.277 105.55 339.713 100.871 336.245C99.7596 335.406 98.4943 334.797 97.1475 334.451C95.8008 334.106 94.3992 334.032 93.0236 334.232C91.648 334.433 90.3257 334.906 89.1329 335.622C87.9401 336.338 86.9004 337.285 86.0737 338.406C85.2471 339.528 84.6498 340.803 84.3164 342.157C83.9831 343.512 83.9202 344.919 84.1313 346.298C84.3425 347.677 84.8236 349 85.5468 350.191C86.2701 351.383 87.2212 352.419 88.3453 353.239H88.3509Z" fill="#D3DEBD"/>
<path d="M129.445 208.55C129.445 214.39 118.913 231.293 118.913 231.293C118.913 231.293 108.382 214.367 108.382 208.55C108.35 207.142 108.598 205.742 109.112 204.431C109.627 203.12 110.397 201.926 111.378 200.919C112.359 199.911 113.531 199.11 114.824 198.564C116.118 198.017 117.507 197.736 118.911 197.736C120.314 197.736 121.704 198.017 122.997 198.564C124.291 199.11 125.462 199.911 126.443 200.919C127.424 201.926 128.194 203.12 128.709 204.431C129.223 205.742 129.472 207.142 129.439 208.55H129.445Z" fill="#B6C7DB"/>
<path d="M146.87 240.879C143.709 245.78 125.706 254.241 125.706 254.241C125.706 254.241 126.034 234.289 129.195 229.388C130.746 227.112 133.121 225.534 135.815 224.991C138.508 224.448 141.306 224.983 143.612 226.481C145.919 227.98 147.55 230.324 148.158 233.012C148.767 235.701 148.305 238.522 146.87 240.873V240.879Z" fill="#B6C7DB"/>
<path d="M146.105 296.127C140.911 298.754 121.117 296.94 121.117 296.94C121.117 296.94 131.433 279.883 136.628 277.256C139.113 276.06 141.967 275.889 144.577 276.781C147.186 277.673 149.344 279.556 150.585 282.026C151.826 284.497 152.053 287.357 151.217 289.994C150.38 292.63 148.547 294.832 146.111 296.127H146.105Z" fill="#B6C7DB"/>
<path d="M136.152 337.797C131.478 341.265 111.657 342.835 111.657 342.835C111.657 342.835 118.953 324.277 123.627 320.803C124.738 319.964 126.003 319.355 127.35 319.009C128.696 318.664 130.098 318.589 131.474 318.79C132.849 318.991 134.172 319.463 135.364 320.18C136.557 320.896 137.597 321.842 138.424 322.964C139.25 324.086 139.847 325.36 140.181 326.715C140.514 328.069 140.577 329.476 140.366 330.855C140.155 332.234 139.674 333.558 138.95 334.749C138.227 335.941 137.276 336.976 136.152 337.797V337.797Z" fill="#B6C7DB"/>
<path d="M103.595 255.372C107.765 259.437 127.201 263.65 127.201 263.65C127.201 263.65 122.443 244.279 118.273 240.208C116.256 238.333 113.588 237.324 110.839 237.397C108.091 237.47 105.48 238.619 103.564 240.598C101.648 242.577 100.579 245.23 100.586 247.99C100.593 250.749 101.675 253.397 103.601 255.366L103.595 255.372Z" fill="#B6C7DB"/>
<path d="M92.5714 304.252C97.7662 306.878 117.56 305.065 117.56 305.065C117.56 305.065 107.244 288.008 102.049 285.381C99.5633 284.184 96.7093 284.014 94.0998 284.906C91.4902 285.798 89.3332 287.681 88.0918 290.151C86.8503 292.622 86.6235 295.482 87.46 298.118C88.2965 300.755 90.1296 302.957 92.5657 304.252H92.5714Z" fill="#B6C7DB"/>
<path d="M88.3509 353.239C93.0245 356.708 112.846 358.277 112.846 358.277C112.846 358.277 105.55 339.713 100.871 336.245C99.7596 335.406 98.4943 334.797 97.1475 334.451C95.8008 334.106 94.3992 334.032 93.0236 334.232C91.648 334.433 90.3257 334.906 89.1329 335.622C87.9401 336.338 86.9004 337.285 86.0737 338.406C85.2471 339.528 84.6498 340.803 84.3164 342.157C83.9831 343.512 83.9202 344.919 84.1313 346.298C84.3425 347.677 84.8236 349 85.5468 350.191C86.2701 351.383 87.2212 352.419 88.3453 353.239H88.3509Z" fill="#B6C7DB"/>
</g>
<defs>
<linearGradient id="paint0_linear" x1="278.722" y1="394.006" x2="278.722" y2="147.816" gradientUnits="userSpaceOnUse">
<stop stop-color="#808080" stop-opacity="0.25"/>
<stop offset="0.54" stop-color="#808080" stop-opacity="0.12"/>
<stop offset="1" stop-color="#808080" stop-opacity="0.1"/>
</linearGradient>
<clipPath id="clip0">
<rect width="558" height="394" fill="white"/>
</clipPath>
</defs>
</svg>
